<svg width="185" height="36" viewBox="0 0 185 36" fill="none" xmlns="http://www.w3.org/2000/svg">
<g clip-path="url(#clip0_1_415)">
<path d="M17.4563 35.5C15.0354 35.5 12.7604 35.0403 10.6312 34.121C8.50208 33.2028 6.65 31.9563 5.075 30.3813C3.5 28.8063 2.26042 26.9542 1.35625 24.825C0.452084 22.6958 0 20.4208 0 18C0 15.5792 0.459667 13.3042 1.379 11.175C2.29717 9.04583 3.54375 7.19375 5.11875 5.61875C6.69375 4.04375 8.54583 2.79658 10.675 1.87725C12.8042 0.959083 15.0792 0.5 17.5 0.5C18.9 0.5 20.293 0.675 21.679 1.025C23.0638 1.375 24.4125 1.88542 25.725 2.55625C26.1625 2.78958 26.4326 3.14658 26.5352 3.62725C26.6367 4.10908 26.5271 4.55417 26.2063 4.9625C25.9146 5.34167 25.5354 5.58958 25.0688 5.70625C24.6021 5.82292 24.1646 5.76458 23.7563 5.53125C22.7646 5.03542 21.7437 4.65625 20.6938 4.39375C19.6437 4.13125 18.5792 4 17.5 4C13.6208 4 10.318 5.36325 7.5915 8.08975C4.86383 10.8174 3.5 14.1208 3.5 18C3.5 21.8792 4.86383 25.1826 7.5915 27.9102C10.318 30.6367 13.6208 32 17.5 32C18.3458 32 19.1479 31.9341 19.9062 31.8022C20.6646 31.6716 21.3937 31.475 22.0938 31.2125C22.4729 31.0667 22.8451 31.0597 23.2102 31.1915C23.5742 31.3222 23.9021 31.5479 24.1938 31.8687C24.5729 32.3062 24.6826 32.7951 24.5228 33.3353C24.3618 33.8743 23.9896 34.2604 23.4062 34.4937C22.5021 34.8146 21.5542 35.0625 20.5625 35.2375C19.5708 35.4125 18.5354 35.5 17.4563 35.5ZM13.825 24.825L8.79375 19.7937C8.47292 19.4729 8.32008 19.0716 8.33525 18.5898C8.34925 18.1091 8.51667 17.7083 8.8375 17.3875C9.15833 17.0667 9.56667 16.9062 10.0625 16.9062C10.5583 16.9062 10.9667 17.0667 11.2875 17.3875L15.05 21.15L31.3687 4.7875C31.6896 4.46667 32.0909 4.31325 32.5728 4.32725C33.0534 4.34242 33.4542 4.51042 33.775 4.83125C34.0958 5.15208 34.2563 5.56042 34.2563 6.05625C34.2563 6.55208 34.0958 6.96042 33.775 7.28125L16.275 24.825C15.9542 25.1458 15.5458 25.3062 15.05 25.3062C14.5542 25.3062 14.1458 25.1458 13.825 24.825ZM31.5 32C31.0042 32 30.5888 31.832 30.254 31.496C29.918 31.1612 29.75 30.7458 29.75 30.25V26.75H26.25C25.7542 26.75 25.3388 26.582 25.004 26.246C24.668 25.9112 24.5 25.4958 24.5 25C24.5 24.5042 24.668 24.0882 25.004 23.7522C25.3388 23.4174 25.7542 23.25 26.25 23.25H29.75V19.75C29.75 19.2542 29.918 18.8382 30.254 18.5022C30.5888 18.1674 31.0042 18 31.5 18C31.9958 18 32.4112 18.1674 32.746 18.5022C33.082 18.8382 33.25 19.2542 33.25 19.75V23.25H36.75C37.2458 23.25 37.6612 23.4174 37.996 23.7522C38.332 24.0882 38.5 24.5042 38.5 25C38.5 25.4958 38.332 25.9112 37.996 26.246C37.6612 26.582 37.2458 26.75 36.75 26.75H33.25V30.25C33.25 30.7458 33.082 31.1612 32.746 31.496C32.4112 31.832 31.9958 32 31.5 32Z" fill="#5F33E1"/>
<path d="M47.2102 12.9901V10.4545H59.1562V12.9901H54.7031V25H51.6634V12.9901H47.2102ZM62.6932 25.206C61.9972 25.206 61.3769 25.0852 60.8324 24.8438C60.2879 24.5975 59.857 24.2353 59.5398 23.7571C59.2273 23.2741 59.071 22.6728 59.071 21.9531C59.071 21.3471 59.1823 20.8381 59.4048 20.4261C59.6274 20.0142 59.9304 19.6828 60.3139 19.4318C60.6974 19.1809 61.133 18.9915 61.6207 18.8636C62.1132 18.7358 62.6293 18.6458 63.169 18.5938C63.8035 18.5275 64.3149 18.4659 64.7031 18.4091C65.0914 18.3475 65.3731 18.2576 65.5483 18.1392C65.7235 18.0208 65.8111 17.8456 65.8111 17.6136V17.571C65.8111 17.1212 65.669 16.7732 65.3849 16.527C65.1056 16.2808 64.7079 16.1577 64.1918 16.1577C63.6473 16.1577 63.214 16.2784 62.892 16.5199C62.5701 16.7566 62.357 17.0549 62.2528 17.4148L59.4545 17.1875C59.5966 16.5246 59.8759 15.9517 60.2926 15.4688C60.7093 14.9811 61.2467 14.607 61.9048 14.3466C62.5677 14.0814 63.3348 13.9489 64.206 13.9489C64.812 13.9489 65.392 14.0199 65.946 14.1619C66.5047 14.304 66.9995 14.5241 67.4304 14.8224C67.866 15.1207 68.2093 15.5043 68.4602 15.973C68.7112 16.437 68.8366 16.9934 68.8366 17.642V25H65.9673V23.4872H65.8821C65.7069 23.8281 65.4725 24.1288 65.179 24.3892C64.8854 24.6449 64.5327 24.8461 64.1207 24.9929C63.7088 25.1349 63.233 25.206 62.6932 25.206ZM63.5597 23.1179C64.0047 23.1179 64.3977 23.0303 64.7386 22.8551C65.0795 22.6752 65.3471 22.4337 65.5412 22.1307C65.7353 21.8277 65.8324 21.4844 65.8324 21.1009V19.9432C65.7377 20.0047 65.6075 20.0616 65.4418 20.1136C65.2808 20.161 65.0985 20.206 64.8949 20.2486C64.6913 20.2865 64.4877 20.322 64.2841 20.3551C64.0805 20.3835 63.8958 20.4096 63.7301 20.4332C63.375 20.4853 63.0649 20.5682 62.7997 20.6818C62.5346 20.7955 62.3286 20.9493 62.1818 21.1435C62.035 21.3329 61.9616 21.5696 61.9616 21.8537C61.9616 22.2656 62.1108 22.5805 62.4091 22.7983C62.7121 23.0114 63.0956 23.1179 63.5597 23.1179ZM80.2607 17.2017L77.4908 17.3722C77.4434 17.1354 77.3416 16.9223 77.1854 16.733C77.0291 16.5388 76.8232 16.3849 76.5675 16.2713C76.3165 16.1529 76.0159 16.0938 75.6655 16.0938C75.1967 16.0938 74.8014 16.1932 74.4794 16.392C74.1574 16.5862 73.9964 16.8466 73.9964 17.1733C73.9964 17.4337 74.1006 17.6539 74.3089 17.8338C74.5173 18.0137 74.8748 18.1581 75.3814 18.267L77.3558 18.6648C78.4164 18.8826 79.2071 19.233 79.728 19.7159C80.2488 20.1989 80.5092 20.8333 80.5092 21.6193C80.5092 22.3343 80.2985 22.9616 79.8771 23.5014C79.4605 24.0412 78.8875 24.4626 78.1584 24.7656C77.4339 25.0639 76.5982 25.2131 75.6513 25.2131C74.2071 25.2131 73.0566 24.9124 72.1996 24.3111C71.3473 23.705 70.8478 22.8812 70.701 21.8395L73.6768 21.6832C73.7668 22.1236 73.9846 22.4598 74.3303 22.6918C74.6759 22.919 75.1186 23.0327 75.6584 23.0327C76.1887 23.0327 76.6148 22.9309 76.9368 22.7273C77.2635 22.5189 77.4292 22.2514 77.4339 21.9247C77.4292 21.6501 77.3132 21.4252 77.0859 21.25C76.8587 21.0701 76.5083 20.9328 76.0348 20.8381L74.1456 20.4616C73.0803 20.2486 72.2872 19.8793 71.7663 19.3537C71.2502 18.8281 70.9922 18.1581 70.9922 17.3438C70.9922 16.643 71.1816 16.0393 71.5604 15.5327C71.9439 15.026 72.4813 14.6354 73.1726 14.3608C73.8686 14.0862 74.683 13.9489 75.6158 13.9489C76.9936 13.9489 78.0779 14.2401 78.8686 14.8224C79.6641 15.4048 80.1281 16.1979 80.2607 17.2017ZM85.1559 21.8608L85.163 18.2315H85.6033L89.0977 14.0909H92.5707L87.8761 19.5739H87.1587L85.1559 21.8608ZM82.4144 25V10.4545H85.44V25H82.4144ZM89.2326 25L86.0224 20.2486L88.0394 18.1108L92.7766 25H89.2326ZM98.7408 10.4545H102.533L106.539 20.2273H106.71L110.715 10.4545H114.508V25H111.525V15.5327H111.404L107.64 24.929H105.609L101.844 15.4972H101.724V25H98.7408V10.4545ZM120.096 25.206C119.4 25.206 118.779 25.0852 118.235 24.8438C117.69 24.5975 117.259 24.2353 116.942 23.7571C116.63 23.2741 116.473 22.6728 116.473 21.9531C116.473 21.3471 116.585 20.8381 116.807 20.4261C117.03 20.0142 117.333 19.6828 117.716 19.4318C118.1 19.1809 118.535 18.9915 119.023 18.8636C119.516 18.7358 120.032 18.6458 120.571 18.5938C121.206 18.5275 121.717 18.4659 122.105 18.4091C122.494 18.3475 122.775 18.2576 122.951 18.1392C123.126 18.0208 123.213 17.8456 123.213 17.6136V17.571C123.213 17.1212 123.071 16.7732 122.787 16.527C122.508 16.2808 122.11 16.1577 121.594 16.1577C121.05 16.1577 120.616 16.2784 120.294 16.5199C119.972 16.7566 119.759 17.0549 119.655 17.4148L116.857 17.1875C116.999 16.5246 117.278 15.9517 117.695 15.4688C118.112 14.9811 118.649 14.607 119.307 14.3466C119.97 14.0814 120.737 13.9489 121.608 13.9489C122.214 13.9489 122.794 14.0199 123.348 14.1619C123.907 14.304 124.402 14.5241 124.833 14.8224C125.268 15.1207 125.612 15.5043 125.863 15.973C126.114 16.437 126.239 16.9934 126.239 17.642V25H123.37V23.4872H123.284C123.109 23.8281 122.875 24.1288 122.581 24.3892C122.288 24.6449 121.935 24.8461 121.523 24.9929C121.111 25.1349 120.635 25.206 120.096 25.206ZM120.962 23.1179C121.407 23.1179 121.8 23.0303 122.141 22.8551C122.482 22.6752 122.749 22.4337 122.944 22.1307C123.138 21.8277 123.235 21.4844 123.235 21.1009V19.9432C123.14 20.0047 123.01 20.0616 122.844 20.1136C122.683 20.161 122.501 20.206 122.297 20.2486C122.094 20.2865 121.89 20.322 121.686 20.3551C121.483 20.3835 121.298 20.4096 121.132 20.4332C120.777 20.4853 120.467 20.5682 120.202 20.6818C119.937 20.7955 119.731 20.9493 119.584 21.1435C119.437 21.3329 119.364 21.5696 119.364 21.8537C119.364 22.2656 119.513 22.5805 119.811 22.7983C120.114 23.0114 120.498 23.1179 120.962 23.1179ZM131.612 18.6932V25H128.586V14.0909H131.47V16.0156H131.598C131.839 15.3812 132.244 14.8793 132.812 14.5099C133.38 14.1359 134.069 13.9489 134.879 13.9489C135.636 13.9489 136.297 14.1146 136.86 14.446C137.424 14.7775 137.862 15.2509 138.174 15.8665C138.487 16.4773 138.643 17.2064 138.643 18.054V25H135.618V18.5938C135.622 17.9261 135.452 17.4053 135.106 17.0312C134.761 16.6525 134.285 16.4631 133.679 16.4631C133.271 16.4631 132.912 16.5507 132.599 16.7259C132.291 16.901 132.05 17.1567 131.875 17.4929C131.704 17.8243 131.617 18.2244 131.612 18.6932ZM144.138 25.206C143.442 25.206 142.822 25.0852 142.278 24.8438C141.733 24.5975 141.302 24.2353 140.985 23.7571C140.673 23.2741 140.516 22.6728 140.516 21.9531C140.516 21.3471 140.628 20.8381 140.85 20.4261C141.073 20.0142 141.376 19.6828 141.759 19.4318C142.143 19.1809 142.578 18.9915 143.066 18.8636C143.558 18.7358 144.075 18.6458 144.614 18.5938C145.249 18.5275 145.76 18.4659 146.148 18.4091C146.537 18.3475 146.818 18.2576 146.994 18.1392C147.169 18.0208 147.256 17.8456 147.256 17.6136V17.571C147.256 17.1212 147.114 16.7732 146.83 16.527C146.551 16.2808 146.153 16.1577 145.637 16.1577C145.093 16.1577 144.659 16.2784 144.337 16.5199C144.015 16.7566 143.802 17.0549 143.698 17.4148L140.9 17.1875C141.042 16.5246 141.321 15.9517 141.738 15.4688C142.155 14.9811 142.692 14.607 143.35 14.3466C144.013 14.0814 144.78 13.9489 145.651 13.9489C146.257 13.9489 146.837 14.0199 147.391 14.1619C147.95 14.304 148.445 14.5241 148.876 14.8224C149.311 15.1207 149.655 15.5043 149.906 15.973C150.156 16.437 150.282 16.9934 150.282 17.642V25H147.413V23.4872H147.327C147.152 23.8281 146.918 24.1288 146.624 24.3892C146.331 24.6449 145.978 24.8461 145.566 24.9929C145.154 25.1349 144.678 25.206 144.138 25.206ZM145.005 23.1179C145.45 23.1179 145.843 23.0303 146.184 22.8551C146.525 22.6752 146.792 22.4337 146.987 22.1307C147.181 21.8277 147.278 21.4844 147.278 21.1009V19.9432C147.183 20.0047 147.053 20.0616 146.887 20.1136C146.726 20.161 146.544 20.206 146.34 20.2486C146.137 20.2865 145.933 20.322 145.729 20.3551C145.526 20.3835 145.341 20.4096 145.175 20.4332C144.82 20.4853 144.51 20.5682 144.245 20.6818C143.98 20.7955 143.774 20.9493 143.627 21.1435C143.48 21.3329 143.407 21.5696 143.407 21.8537C143.407 22.2656 143.556 22.5805 143.854 22.7983C144.157 23.0114 144.541 23.1179 145.005 23.1179ZM157.544 29.3182C156.564 29.3182 155.723 29.1832 155.023 28.9134C154.327 28.6482 153.773 28.286 153.361 27.8267C152.949 27.3674 152.681 26.8513 152.558 26.2784L155.357 25.902C155.442 26.1198 155.577 26.3234 155.761 26.5128C155.946 26.7022 156.19 26.8537 156.493 26.9673C156.801 27.0857 157.175 27.1449 157.615 27.1449C158.273 27.1449 158.815 26.9839 159.241 26.6619C159.672 26.3447 159.888 25.812 159.888 25.0639V23.0682H159.76C159.627 23.3712 159.429 23.6577 159.163 23.9276C158.898 24.1974 158.557 24.4176 158.141 24.5881C157.724 24.7585 157.227 24.8438 156.649 24.8438C155.83 24.8438 155.084 24.6544 154.412 24.2756C153.744 23.892 153.212 23.3073 152.814 22.5213C152.421 21.7306 152.224 20.7315 152.224 19.5241C152.224 18.2884 152.426 17.2562 152.828 16.4276C153.231 15.599 153.766 14.9787 154.433 14.5668C155.106 14.1548 155.842 13.9489 156.642 13.9489C157.253 13.9489 157.764 14.053 158.176 14.2614C158.588 14.465 158.92 14.7206 159.17 15.0284C159.426 15.3314 159.623 15.6297 159.76 15.9233H159.874V14.0909H162.878V25.1065C162.878 26.0346 162.651 26.8111 162.196 27.4361C161.741 28.0611 161.112 28.5298 160.307 28.8423C159.507 29.1596 158.586 29.3182 157.544 29.3182ZM157.608 22.571C158.096 22.571 158.508 22.4503 158.844 22.2088C159.185 21.9626 159.445 21.6122 159.625 21.1577C159.81 20.6984 159.902 20.1491 159.902 19.5099C159.902 18.8707 159.812 18.3168 159.632 17.848C159.452 17.3745 159.192 17.0076 158.851 16.7472C158.51 16.4867 158.096 16.3565 157.608 16.3565C157.111 16.3565 156.692 16.4915 156.351 16.7614C156.01 17.0265 155.752 17.3958 155.577 17.8693C155.402 18.3428 155.314 18.8897 155.314 19.5099C155.314 20.1397 155.402 20.6842 155.577 21.1435C155.757 21.598 156.015 21.9508 156.351 22.2017C156.692 22.4479 157.111 22.571 157.608 22.571ZM170.257 25.2131C169.135 25.2131 168.169 24.9858 167.359 24.5312C166.554 24.072 165.934 23.4233 165.499 22.5852C165.063 21.7424 164.845 20.7457 164.845 19.5952C164.845 18.473 165.063 17.4882 165.499 16.6406C165.934 15.7931 166.547 15.1326 167.338 14.6591C168.134 14.1856 169.066 13.9489 170.136 13.9489C170.856 13.9489 171.526 14.0649 172.146 14.2969C172.771 14.5241 173.316 14.8674 173.78 15.3267C174.249 15.786 174.613 16.3636 174.874 17.0597C175.134 17.7509 175.264 18.5606 175.264 19.4886V20.3196H166.053V18.4446H172.416C172.416 18.009 172.321 17.6231 172.132 17.2869C171.943 16.9508 171.68 16.688 171.344 16.4986C171.012 16.3045 170.626 16.2074 170.186 16.2074C169.727 16.2074 169.32 16.3139 168.964 16.527C168.614 16.7353 168.339 17.017 168.141 17.3722C167.942 17.7225 167.84 18.1132 167.835 18.544V20.3267C167.835 20.8665 167.935 21.3329 168.134 21.7259C168.337 22.1188 168.624 22.4219 168.993 22.6349C169.362 22.848 169.8 22.9545 170.307 22.9545C170.643 22.9545 170.951 22.9072 171.23 22.8125C171.509 22.7178 171.749 22.5758 171.947 22.3864C172.146 22.197 172.298 21.965 172.402 21.6903L175.2 21.875C175.058 22.5473 174.767 23.1345 174.327 23.6364C173.891 24.1335 173.328 24.5218 172.636 24.8011C171.95 25.0758 171.157 25.2131 170.257 25.2131ZM177.239 25V14.0909H180.172V15.9943H180.286C180.484 15.3172 180.818 14.8059 181.287 14.4602C181.756 14.1098 182.295 13.9347 182.906 13.9347C183.058 13.9347 183.221 13.9441 183.396 13.9631C183.571 13.982 183.725 14.008 183.858 14.0412V16.7259C183.716 16.6832 183.519 16.6454 183.268 16.6122C183.018 16.5791 182.788 16.5625 182.58 16.5625C182.134 16.5625 181.737 16.6596 181.386 16.8537C181.041 17.0431 180.766 17.3082 180.562 17.6491C180.364 17.9901 180.264 18.383 180.264 18.8281V25H177.239Z" fill="#24252C"/>
</g>
<defs>
<clipPath id="clip0_1_415">
<rect width="184.5" height="35" fill="white" transform="translate(0 0.5)"/>
</clipPath>
</defs>
</svg>
