<svg width="84" height="48" viewBox="0 0 84 48" fill="none" xmlns="http://www.w3.org/2000/svg">
<g filter="url(#filter0_d_1_321)">
<rect x="6" y="5" width="72" height="36" rx="8" fill="#5F33E1" shape-rendering="crispEdges"/>
<g clip-path="url(#clip0_1_321)">
<g clip-path="url(#clip1_1_321)">
<path d="M27.3161 17.2689V15.7594C27.3161 15.3443 27.6557 15.0047 28.0708 15.0047C28.4859 15.0047 28.8255 15.3443 28.8255 15.7594V17.2689C28.8255 17.6839 28.4859 18.0236 28.0708 18.0236C27.6557 18.0236 27.3161 17.6839 27.3161 17.2689ZM32.8708 19.5707L33.935 18.499C34.2293 18.2047 34.2293 17.7292 33.935 17.4349C33.6406 17.1405 33.1651 17.1405 32.8708 17.4349L31.8067 18.5066C31.5123 18.8009 31.5123 19.2764 31.8067 19.5707C32.101 19.8651 32.5765 19.8651 32.8708 19.5707ZM35.618 22.5519H34.1085C33.6934 22.5519 33.3538 22.8915 33.3538 23.3066C33.3538 23.7217 33.6934 24.0613 34.1085 24.0613H35.618C36.0331 24.0613 36.3727 23.7217 36.3727 23.3066C36.3727 22.8915 36.0331 22.5519 35.618 22.5519ZM28.0708 28.5896C27.6557 28.5896 27.3161 28.9292 27.3161 29.3443V30.8538C27.3161 31.2689 27.6557 31.6085 28.0708 31.6085C28.4859 31.6085 28.8255 31.2689 28.8255 30.8538V29.3443C28.8255 28.9292 28.4859 28.5896 28.0708 28.5896ZM23.2708 19.5707L22.1991 18.5066C21.9048 18.2122 21.9048 17.7292 22.1991 17.4424C22.4934 17.1556 22.9765 17.1481 23.2633 17.4424L24.3274 18.5066C24.6218 18.8009 24.6218 19.2839 24.3274 19.5707C24.0331 19.8575 23.5576 19.8651 23.2708 19.5707ZM31.8067 27.0424C31.5123 27.3368 31.5123 27.8198 31.8067 28.1066L32.8708 29.1707C33.1651 29.4651 33.6482 29.4651 33.935 29.1707C34.2293 28.8764 34.2293 28.3934 33.935 28.1066L32.8708 27.0424C32.584 26.7481 32.101 26.7481 31.8067 27.0424ZM20.5236 24.0613H22.0331C22.4482 24.0613 22.7878 23.7217 22.7878 23.3066C22.7878 22.8915 22.4482 22.5519 22.0331 22.5519H20.5236C20.1085 22.5519 19.7689 22.8915 19.7689 23.3066C19.7689 23.7217 20.1085 24.0613 20.5236 24.0613ZM23.2708 29.1783L24.335 28.1141C24.6293 27.8198 24.6293 27.3368 24.335 27.05C24.0406 26.7632 23.5576 26.7556 23.2708 27.05L22.2067 28.1141C21.9123 28.4085 21.9123 28.8915 22.2067 29.1783C22.4934 29.4726 22.9765 29.4726 23.2708 29.1783ZM28.0708 18.7783C25.5727 18.7783 23.5425 20.8085 23.5425 23.3066C23.5425 25.8047 25.5727 27.8349 28.0708 27.8349C30.5689 27.8349 32.5991 25.8047 32.5991 23.3066C32.5991 20.8085 30.5689 18.7783 28.0708 18.7783Z" fill="#FFD332"/>
</g>
</g>
<g clip-path="url(#clip2_1_321)">
<path d="M56.5618 22.6934C56.5618 19.999 58.2222 17.6971 60.5694 16.7537C61.241 16.482 61.1354 15.4783 60.426 15.3198C59.5958 15.1387 58.7127 15.0934 57.7995 15.2141C54.3958 15.667 51.6712 18.467 51.3165 21.8783C50.8486 26.4141 54.3882 30.2405 58.826 30.2405C59.3769 30.2405 59.9052 30.1802 60.426 30.067C61.1429 29.9085 61.2561 28.9122 60.5769 28.633C58.1467 27.6594 56.5543 25.3047 56.5618 22.6934Z" fill="#EDE4FF"/>
</g>
</g>
<defs>
<filter id="filter0_d_1_321" x="0" y="0" width="84" height="48" filterUnits="userSpaceOnUse" color-interpolation-filters="sRGB">
<feFlood flood-opacity="0" result="BackgroundImageFix"/>
<feColorMatrix in="SourceAlpha" type="matrix" values="0 0 0 0 0 0 0 0 0 0 0 0 0 0 0 0 0 0 127 0" result="hardAlpha"/>
<feOffset dy="1"/>
<feGaussianBlur stdDeviation="3"/>
<feComposite in2="hardAlpha" operator="out"/>
<feColorMatrix type="matrix" values="0 0 0 0 0 0 0 0 0 0 0 0 0 0 0 0 0 0 0.12 0"/>
<feBlend mode="normal" in2="BackgroundImageFix" result="effect1_dropShadow_1_321"/>
<feBlend mode="normal" in="SourceGraphic" in2="effect1_dropShadow_1_321" result="shape"/>
</filter>
<clipPath id="clip0_1_321">
<rect width="20" height="20" fill="white" transform="translate(18 13)"/>
</clipPath>
<clipPath id="clip1_1_321">
<rect width="18.1132" height="18.1132" fill="white" transform="translate(19.0142 14.25)"/>
</clipPath>
<clipPath id="clip2_1_321">
<rect width="20" height="20" fill="white" transform="translate(46 13)"/>
</clipPath>
</defs>
</svg>
