<svg width="84" height="48" viewBox="0 0 84 48" fill="none" xmlns="http://www.w3.org/2000/svg">
<g filter="url(#filter0_d_1_361)">
<rect x="6" y="5" width="72" height="36" rx="8" fill="#5F33E1" shape-rendering="crispEdges"/>
<g clip-path="url(#clip0_1_361)">
<g clip-path="url(#clip1_1_361)">
<path d="M27.3161 17.2688V15.7594C27.3161 15.3443 27.6557 15.0046 28.0708 15.0046C28.4859 15.0046 28.8255 15.3443 28.8255 15.7594V17.2688C28.8255 17.6839 28.4859 18.0235 28.0708 18.0235C27.6557 18.0235 27.3161 17.6839 27.3161 17.2688ZM32.8708 19.5707L33.935 18.499C34.2293 18.2046 34.2293 17.7292 33.935 17.4348C33.6406 17.1405 33.1651 17.1405 32.8708 17.4348L31.8067 18.5065C31.5123 18.8009 31.5123 19.2763 31.8067 19.5707C32.101 19.865 32.5765 19.865 32.8708 19.5707ZM35.618 22.5518H34.1085C33.6934 22.5518 33.3538 22.8914 33.3538 23.3065C33.3538 23.7216 33.6934 24.0612 34.1085 24.0612H35.618C36.0331 24.0612 36.3727 23.7216 36.3727 23.3065C36.3727 22.8914 36.0331 22.5518 35.618 22.5518ZM28.0708 28.5895C27.6557 28.5895 27.3161 28.9292 27.3161 29.3443V30.8537C27.3161 31.2688 27.6557 31.6084 28.0708 31.6084C28.4859 31.6084 28.8255 31.2688 28.8255 30.8537V29.3443C28.8255 28.9292 28.4859 28.5895 28.0708 28.5895ZM23.2708 19.5707L22.1991 18.5065C21.9048 18.2122 21.9048 17.7292 22.1991 17.4424C22.4934 17.1556 22.9765 17.148 23.2633 17.4424L24.3274 18.5065C24.6218 18.8009 24.6218 19.2839 24.3274 19.5707C24.0331 19.8575 23.5576 19.865 23.2708 19.5707ZM31.8067 27.0424C31.5123 27.3367 31.5123 27.8197 31.8067 28.1065L32.8708 29.1707C33.1651 29.465 33.6482 29.465 33.935 29.1707C34.2293 28.8763 34.2293 28.3933 33.935 28.1065L32.8708 27.0424C32.584 26.748 32.101 26.748 31.8067 27.0424ZM20.5236 24.0612H22.0331C22.4482 24.0612 22.7878 23.7216 22.7878 23.3065C22.7878 22.8914 22.4482 22.5518 22.0331 22.5518H20.5236C20.1085 22.5518 19.7689 22.8914 19.7689 23.3065C19.7689 23.7216 20.1085 24.0612 20.5236 24.0612ZM23.2708 29.1782L24.335 28.1141C24.6293 27.8197 24.6293 27.3367 24.335 27.0499C24.0406 26.7631 23.5576 26.7556 23.2708 27.0499L22.2067 28.1141C21.9123 28.4084 21.9123 28.8914 22.2067 29.1782C22.4934 29.4726 22.9765 29.4726 23.2708 29.1782ZM28.0708 18.7782C25.5727 18.7782 23.5425 20.8084 23.5425 23.3065C23.5425 25.8046 25.5727 27.8348 28.0708 27.8348C30.5689 27.8348 32.5991 25.8046 32.5991 23.3065C32.5991 20.8084 30.5689 18.7782 28.0708 18.7782Z" fill="#EDE4FF"/>
</g>
</g>
<g clip-path="url(#clip2_1_361)">
<path d="M56.5618 22.6934C56.5618 19.999 58.2222 17.6971 60.5694 16.7537C61.241 16.482 61.1354 15.4783 60.426 15.3198C59.5958 15.1387 58.7127 15.0934 57.7995 15.2141C54.3958 15.667 51.6712 18.467 51.3165 21.8783C50.8486 26.4141 54.3882 30.2405 58.826 30.2405C59.3769 30.2405 59.9052 30.1802 60.426 30.067C61.1429 29.9085 61.2561 28.9122 60.5769 28.633C58.1467 27.6594 56.5543 25.3047 56.5618 22.6934Z" fill="#FFD332"/>
</g>
</g>
<defs>
<filter id="filter0_d_1_361" x="0" y="0" width="84" height="48" filterUnits="userSpaceOnUse" color-interpolation-filters="sRGB">
<feFlood flood-opacity="0" result="BackgroundImageFix"/>
<feColorMatrix in="SourceAlpha" type="matrix" values="0 0 0 0 0 0 0 0 0 0 0 0 0 0 0 0 0 0 127 0" result="hardAlpha"/>
<feOffset dy="1"/>
<feGaussianBlur stdDeviation="3"/>
<feComposite in2="hardAlpha" operator="out"/>
<feColorMatrix type="matrix" values="0 0 0 0 0 0 0 0 0 0 0 0 0 0 0 0 0 0 0.12 0"/>
<feBlend mode="normal" in2="BackgroundImageFix" result="effect1_dropShadow_1_361"/>
<feBlend mode="normal" in="SourceGraphic" in2="effect1_dropShadow_1_361" result="shape"/>
</filter>
<clipPath id="clip0_1_361">
<rect width="20" height="20" fill="white" transform="translate(18 13)"/>
</clipPath>
<clipPath id="clip1_1_361">
<rect width="18.1132" height="18.1132" fill="white" transform="translate(19.0142 14.25)"/>
</clipPath>
<clipPath id="clip2_1_361">
<rect width="20" height="20" fill="white" transform="translate(46 13)"/>
</clipPath>
</defs>
</svg>
