<svg width="40" height="40" viewBox="0 0 40 40" fill="none" xmlns="http://www.w3.org/2000/svg">
<rect width="40" height="40" rx="12" fill="#FFE4F2"/>
<g clip-path="url(#clip0_1_460)">
<path d="M17.3333 20C20.2789 20 22.6667 17.6122 22.6667 14.6667C22.6667 11.7212 20.2789 9.33337 17.3333 9.33337C14.3878 9.33337 12 11.7212 12 14.6667C12 17.6122 14.3878 20 17.3333 20Z" fill="#F478B8"/>
<path d="M18.2267 21.36C17.9334 21.3467 17.64 21.3334 17.3334 21.3334C14.1067 21.3334 11.0934 22.2267 8.52002 23.76C7.34669 24.4534 6.66669 25.76 6.66669 27.1334V30.6667H19.0134C17.96 29.16 17.3334 27.32 17.3334 25.3334C17.3334 23.9067 17.6667 22.5734 18.2267 21.36Z" fill="#F478B8"/>
<path d="M31.6667 25.3333C31.6667 25.04 31.6267 24.7733 31.5867 24.4933L33.1067 23.1466L31.7734 20.84L29.84 21.4933C29.4134 21.1333 28.9334 20.8533 28.4 20.6533L28 18.6666H25.3334L24.9334 20.6533C24.4 20.8533 23.92 21.1333 23.4934 21.4933L21.56 20.84L20.2267 23.1466L21.7467 24.4933C21.7067 24.7733 21.6667 25.04 21.6667 25.3333C21.6667 25.6266 21.7067 25.8933 21.7467 26.1733L20.2267 27.52L21.56 29.8266L23.4934 29.1733C23.92 29.5333 24.4 29.8133 24.9334 30.0133L25.3334 32H28L28.4 30.0133C28.9334 29.8133 29.4134 29.5333 29.84 29.1733L31.7734 29.8266L33.1067 27.52L31.5867 26.1733C31.6267 25.8933 31.6667 25.6266 31.6667 25.3333ZM26.6667 28C25.2 28 24 26.8 24 25.3333C24 23.8666 25.2 22.6666 26.6667 22.6666C28.1334 22.6666 29.3334 23.8666 29.3334 25.3333C29.3334 26.8 28.1334 28 26.6667 28Z" fill="#F478B8"/>
</g>
<defs>
<clipPath id="clip0_1_460">
<rect width="32" height="32" fill="white" transform="translate(4 4)"/>
</clipPath>
</defs>
</svg>
