<svg width="40" height="40" viewBox="0 0 40 40" fill="none" xmlns="http://www.w3.org/2000/svg">
<rect y="0.000488281" width="40" height="40" rx="12" fill="#FFF6D4"/>
<g clip-path="url(#clip0_1_508)">
<path d="M9.99999 20.0005C11.8409 20.0005 13.3333 18.5081 13.3333 16.6672C13.3333 14.8262 11.8409 13.3339 9.99999 13.3339C8.15904 13.3339 6.66666 14.8262 6.66666 16.6672C6.66666 18.5081 8.15904 20.0005 9.99999 20.0005Z" fill="#FFD332"/>
<path d="M16 14.6672C17.8409 14.6672 19.3333 13.1748 19.3333 11.3338C19.3333 9.49287 17.8409 8.00049 16 8.00049C14.159 8.00049 12.6667 9.49287 12.6667 11.3338C12.6667 13.1748 14.159 14.6672 16 14.6672Z" fill="#FFD332"/>
<path d="M24 14.6672C25.8409 14.6672 27.3333 13.1748 27.3333 11.3338C27.3333 9.49287 25.8409 8.00049 24 8.00049C22.159 8.00049 20.6667 9.49287 20.6667 11.3338C20.6667 13.1748 22.159 14.6672 24 14.6672Z" fill="#FFD332"/>
<path d="M30 20.0005C31.8409 20.0005 33.3333 18.5081 33.3333 16.6672C33.3333 14.8262 31.8409 13.3339 30 13.3339C28.159 13.3339 26.6667 14.8262 26.6667 16.6672C26.6667 18.5081 28.159 20.0005 30 20.0005Z" fill="#FFD332"/>
<path d="M27.12 23.8138C25.96 22.4538 24.9867 21.2938 23.8133 19.9338C23.2 19.2138 22.4133 18.4938 21.48 18.1738C21.3333 18.1205 21.1867 18.0805 21.04 18.0538C20.7067 18.0005 20.3467 18.0005 20 18.0005C19.6533 18.0005 19.2933 18.0005 18.9467 18.0672C18.8 18.0938 18.6533 18.1338 18.5067 18.1872C17.5733 18.5072 16.8 19.2272 16.1733 19.9472C15.0133 21.3072 14.04 22.4672 12.8667 23.8272C11.12 25.5738 8.97333 27.5072 9.37333 30.2138C9.76 31.5738 10.7333 32.9205 12.48 33.3072C13.4533 33.5072 16.56 32.7205 19.8667 32.7205H20.1067C23.4133 32.7205 26.52 33.4938 27.4933 33.3072C29.24 32.9205 30.2133 31.5605 30.6 30.2138C31.0133 27.4938 28.8667 25.5605 27.12 23.8138Z" fill="#FFD332"/>
</g>
<defs>
<clipPath id="clip0_1_508">
<rect width="32" height="32" fill="white" transform="translate(4 4.00049)"/>
</clipPath>
</defs>
</svg>
