<svg width="40" height="40" viewBox="0 0 40 40" fill="none" xmlns="http://www.w3.org/2000/svg">
<rect y="0.000366211" width="40" height="40" rx="12" fill="#E7F3FF"/>
<g clip-path="url(#clip0_1_484)">
<path d="M32 10.667C30.52 10.2004 28.8933 10.0004 27.3333 10.0004C24.7333 10.0004 21.9333 10.5337 20 12.0004C18.0667 10.5337 15.2667 10.0004 12.6667 10.0004C10.0667 10.0004 7.26668 10.5337 5.33334 12.0004V31.5337C5.33334 31.867 5.66668 32.2004 6.00001 32.2004C6.13334 32.2004 6.20001 32.1337 6.33334 32.1337C8.13334 31.267 10.7333 30.667 12.6667 30.667C15.2667 30.667 18.0667 31.2004 20 32.667C21.8 31.5337 25.0667 30.667 27.3333 30.667C29.5333 30.667 31.8 31.067 33.6667 32.067C33.8 32.1337 33.8667 32.1337 34 32.1337C34.3333 32.1337 34.6667 31.8004 34.6667 31.467V12.0004C33.8667 11.4004 33 11.0004 32 10.667ZM32 28.667C30.5333 28.2004 28.9333 28.0004 27.3333 28.0004C25.0667 28.0004 21.8 28.867 20 30.0004V14.667C21.8 13.5337 25.0667 12.667 27.3333 12.667C28.9333 12.667 30.5333 12.867 32 13.3337V28.667Z" fill="#0087FF"/>
<path d="M27.3333 18.0004C28.5066 18.0004 29.64 18.1204 30.6666 18.347V16.3204C29.6133 16.1204 28.48 16.0004 27.3333 16.0004C25.0666 16.0004 23.0133 16.387 21.3333 17.107V19.3204C22.84 18.467 24.9333 18.0004 27.3333 18.0004Z" fill="#0087FF"/>
<path d="M21.3333 20.6537V22.867C22.8399 22.0137 24.9333 21.547 27.3333 21.547C28.5066 21.547 29.6399 21.667 30.6666 21.8937V19.867C29.6133 19.667 28.4799 19.547 27.3333 19.547C25.0666 19.547 23.0133 19.947 21.3333 20.6537Z" fill="#0087FF"/>
<path d="M27.3333 23.1071C25.0666 23.1071 23.0133 23.4937 21.3333 24.2137V26.4271C22.8399 25.5737 24.9333 25.1071 27.3333 25.1071C28.5066 25.1071 29.6399 25.2271 30.6666 25.4537V23.4271C29.6133 23.2137 28.4799 23.1071 27.3333 23.1071Z" fill="#0087FF"/>
</g>
<defs>
<clipPath id="clip0_1_484">
<rect width="32" height="32" fill="white" transform="translate(4 4.00037)"/>
</clipPath>
</defs>
</svg>
