<svg width="20" height="20" viewBox="0 0 20 20" fill="none" xmlns="http://www.w3.org/2000/svg">
<rect width="20" height="20" rx="6" fill="#FFE6D4"/>
<g clip-path="url(#clip0_1_1955)">
<path d="M6.66663 13.9999C5.93329 13.9999 5.33996 14.5999 5.33996 15.3333C5.33996 16.0666 5.93329 16.6666 6.66663 16.6666C7.39996 16.6666 7.99996 16.0666 7.99996 15.3333C7.99996 14.5999 7.39996 13.9999 6.66663 13.9999ZM2.66663 3.33325V4.66659H3.99996L6.39996 9.72658L5.49996 11.3599C5.39329 11.5466 5.33329 11.7666 5.33329 11.9999C5.33329 12.7333 5.93329 13.3333 6.66663 13.3333H14.6666V11.9999H6.94663C6.85329 11.9999 6.77996 11.9266 6.77996 11.8333L6.79996 11.7533L7.39996 10.6666H12.3666C12.8666 10.6666 13.3066 10.3933 13.5333 9.97992L15.92 5.65325C15.9733 5.55992 16 5.44659 16 5.33325C16 4.96659 15.7 4.66659 15.3333 4.66659H5.47329L4.84663 3.33325H2.66663ZM13.3333 13.9999C12.6 13.9999 12.0066 14.5999 12.0066 15.3333C12.0066 16.0666 12.6 16.6666 13.3333 16.6666C14.0666 16.6666 14.6666 16.0666 14.6666 15.3333C14.6666 14.5999 14.0666 13.9999 13.3333 13.9999Z" fill="#FF9142"/>
</g>
<defs>
<clipPath id="clip0_1_1955">
<rect width="16" height="16" fill="white" transform="translate(2 2)"/>
</clipPath>
</defs>
</svg>
