<svg width="40" height="40" viewBox="0 0 40 40" fill="none" xmlns="http://www.w3.org/2000/svg">
<rect y="0.00012207" width="40" height="40" rx="12" fill="#EDE4FF"/>
<g clip-path="url(#clip0_1_472)">
<path d="M31 12.3335H25.6667V9.66679C25.6667 8.18679 24.48 7.00012 23 7.00012H17.6667C16.1867 7.00012 15 8.18679 15 9.66679V12.3335H9.66667C8.18667 12.3335 7.01333 13.5201 7.01333 15.0001L7 29.6668C7 31.1468 8.18667 32.3335 9.66667 32.3335H31C32.48 32.3335 33.6667 31.1468 33.6667 29.6668V15.0001C33.6667 13.5201 32.48 12.3335 31 12.3335ZM23 12.3335H17.6667V9.66679H23V12.3335Z" fill="#9260F4"/>
</g>
<defs>
<clipPath id="clip0_1_472">
<rect width="32" height="32" fill="white" transform="translate(4 4.00012)"/>
</clipPath>
</defs>
</svg>
